<?xml version="1.0" encoding="UTF-8"?>
<!DOCTYPE svg PUBLIC "-//W3C//DTD SVG 1.1//EN" "http://www.w3.org/Graphics/SVG/1.1/DTD/svg11.dtd">
<svg version="1.1" xmlns="http://www.w3.org/2000/svg" xmlns:xlink="http://www.w3.org/1999/xlink" x="0" y="0" width="330" height="420" viewBox="0, 0, 330, 420">
  <defs>
    <radialGradient id="Gradient_1" gradientUnits="userSpaceOnUse" cx="775.806" cy="269.304" r="45.274" gradientTransform="matrix(0.908, 0.418, -1.992, 0.184, 0, 0)">
      <stop offset="0" stop-color="#FFFFFF" stop-opacity="0.222"/>
      <stop offset="1" stop-color="#FFFFFF" stop-opacity="0"/>
    </radialGradient>
  </defs>
  <g id="Ebene_1">
    <path d="M170.475,87.25 C182.802,87.225 194.976,89.002 207.029,91.387 C242.68,99.256 265.996,119.411 273.906,149.194 C276.697,159.704 277.361,175.423 275.074,176.837 C274.613,177.123 272.011,177.533 269.294,177.748 C262.62,178.275 262.392,178.734 264.476,187.379 C266.318,195.023 268.048,198.104 271.711,200.254 C273.882,201.531 275.681,201.756 285.487,201.977 C298.703,202.275 301.33,201.917 302.84,199.614 C303.852,198.068 303.826,197.708 302.527,195.283 C300.729,191.932 301.401,189.85 304.624,188.775 C307.59,187.787 308.016,186.703 306.07,185.094 C304.735,183.99 304.658,183.556 305.346,181.099 C305.899,179.134 305.909,172.091 305.384,156.504 C304.978,144.492 304.811,134.395 305.014,134.067 C305.217,133.739 308.26,133.471 311.777,133.471 L318.174,133.471 L317.989,159.192 C317.847,178.967 317.597,184.99 316.91,185.254 C316.419,185.443 316.017,186.251 316.017,187.049 C316.017,188.163 316.483,188.501 318.018,188.501 C319.118,188.501 320.406,188.887 320.877,189.358 C322.072,190.553 321.949,193.903 320.662,195.188 C319.017,196.835 319.377,198.748 321.76,201.032 C323.896,203.079 323.926,203.202 323.725,209.509 L323.522,215.91 L319.816,216.744 C313.269,218.216 309.593,222.011 309.589,227.308 C309.587,230.442 310.325,232.046 316.17,241.581 C319.763,247.437 320.308,248.742 319.546,249.659 C318.154,251.338 308.94,256.524 308.185,256.054 C307.814,255.827 303.916,249.942 299.518,242.976 C285.394,220.601 284.105,218.798 281.278,217.456 C278.171,215.982 273.934,216.423 270.978,218.528 C269.837,219.342 268.353,221.627 267.402,224.042 C263.014,235.175 257.532,241.912 251.45,243.646 C247.471,244.78 246.089,246.085 245.594,249.168 C244.176,257.998 240.657,269.693 236.859,278.193 C231.067,291.158 219.578,305.708 215.133,305.708 C214.458,305.708 212.402,304.405 210.562,302.814 C208.722,301.22 206.709,300.015 206.089,300.135 C205.468,300.254 203.401,303.056 201.496,306.362 C194.046,319.291 184.501,329.392 173.438,336.052 C171.126,337.444 168.878,338.582 168.441,338.582 C168.003,338.582 165.93,337.726 163.832,336.682 C159.056,334.303 147.309,323.126 141.552,315.484 C139.197,312.359 136.152,307.58 134.783,304.865 C133.415,302.148 131.82,299.743 131.239,299.52 C130.604,299.277 128.904,300.289 126.992,302.054 C122.59,306.11 120.528,306.026 115.79,301.599 C107.159,293.535 97.856,275.772 93.728,259.482 C89.911,244.41 90.733,245.971 85.13,243.149 C82.385,241.767 78.87,239.328 77.321,237.731 C68.475,228.619 66.452,211.029 71.831,190.014 C74.22,180.674 74.246,180.427 72.939,179.12 C71.928,178.11 70.55,177.781 67.312,177.781 C63.884,177.781 62.717,177.475 61.496,176.252 C60.054,174.81 59.994,174.277 60.441,166.784 C62.164,138.021 75.117,116.511 98.914,102.9 C116.286,93.26 136.193,88.933 155.89,87.636 C160.743,87.316 165.613,87.379 170.475,87.25 z" fill="#00FF00">
    <animate attributeName="opacity"
             values="0.2;1;0.2" dur="5s"
             repeatCount="indefinite"/>
    </path>
    <path d="M163.832,336.682 C159.056,334.303 147.309,323.126 141.552,315.484 C139.197,312.359 136.152,307.58 134.783,304.865 C133.415,302.148 131.82,299.743 131.239,299.52 C130.604,299.277 128.904,300.289 126.992,302.054 C122.59,306.11 120.528,306.026 115.79,301.599 C107.159,293.535 97.856,275.772 93.728,259.482 C89.911,244.41 90.733,245.971 85.13,243.149 C82.385,241.767 78.87,239.328 77.321,237.731 C68.475,228.619 66.452,211.029 71.831,190.014 C74.22,180.674 74.246,180.427 72.939,179.12 C71.928,178.11 70.55,177.781 67.312,177.781 C63.884,177.781 62.717,177.475 61.496,176.252 C60.054,174.81 59.994,174.277 60.441,166.784 C62.164,138.021 75.117,116.511 98.914,102.9 C125.68,87.592 168.958,82.983 207.029,91.387 C242.68,99.256 265.996,119.411 273.906,149.194 C276.697,159.704 277.361,175.423 275.074,176.837 C274.613,177.123 272.011,177.533 269.294,177.748 C262.62,178.275 262.392,178.734 264.476,187.379 C266.318,195.023 268.048,198.104 271.711,200.254 C273.882,201.531 275.681,201.756 285.487,201.977 C298.703,202.275 301.33,201.917 302.84,199.614 C303.852,198.068 303.826,197.708 302.527,195.283 C300.729,191.932 301.401,189.85 304.624,188.775 C307.59,187.787 308.016,186.703 306.07,185.094 C304.735,183.99 304.658,183.556 305.346,181.099 C305.899,179.134 305.909,172.091 305.384,156.504 C304.978,144.492 304.811,134.395 305.014,134.067 C305.217,133.739 308.26,133.471 311.777,133.471 L318.174,133.471 L317.989,159.192 C317.847,178.967 317.597,184.99 316.91,185.254 C316.419,185.443 316.017,186.251 316.017,187.049 C316.017,188.163 316.483,188.501 318.018,188.501 C319.118,188.501 320.406,188.887 320.877,189.358 C322.072,190.553 321.949,193.903 320.662,195.188 C319.017,196.835 319.377,198.748 321.76,201.032 C323.896,203.079 323.926,203.202 323.725,209.509 L323.522,215.91 L319.816,216.744 C313.269,218.216 309.593,222.011 309.589,227.308 C309.587,230.442 310.325,232.046 316.17,241.581 C319.763,247.437 320.308,248.742 319.546,249.659 C318.154,251.338 308.94,256.524 308.185,256.054 C307.814,255.827 303.916,249.942 299.518,242.976 C285.394,220.601 284.105,218.798 281.278,217.456 C278.171,215.982 273.934,216.423 270.978,218.528 C269.837,219.342 268.353,221.627 267.402,224.042 C263.014,235.175 257.532,241.912 251.45,243.646 C247.471,244.78 246.089,246.085 245.594,249.168 C244.176,257.998 240.657,269.693 236.859,278.193 C231.067,291.158 219.578,305.708 215.133,305.708 C214.458,305.708 212.402,304.405 210.562,302.814 C208.722,301.22 206.709,300.015 206.089,300.135 C205.468,300.254 203.401,303.056 201.496,306.362 C194.046,319.291 184.501,329.392 173.438,336.052 C171.126,337.444 168.878,338.582 168.441,338.582 C168.003,338.582 165.93,337.726 163.832,336.682 z M172.232,323.644 C175.504,321.975 185.39,311.759 188.897,306.422 C193.995,298.665 197.382,290.115 197.382,285.003 C197.382,283.698 195.029,280.502 189.072,273.719 C184.503,268.514 180.316,264.257 179.771,264.257 C179.226,264.257 177.069,265.222 174.979,266.402 C170.189,269.105 167.092,269.135 161.807,266.529 C159.558,265.421 157.173,264.637 156.505,264.788 C155.838,264.938 151.898,268.951 147.75,273.703 L140.208,282.346 L140.22,286.344 C140.25,296.361 152.777,316.481 163.033,322.985 C166.774,325.358 168.612,325.49 172.23,323.644 z M170.937,308.922 C168.952,306.527 172.94,298.269 176.516,297.37 C178.715,296.819 180.513,297.853 180.809,299.842 C181.022,301.262 179.524,303.406 175.104,308.007 C172.924,310.275 172.194,310.436 170.937,308.922 z M131.651,281.23 C142.844,269.17 151.643,258.809 151.643,257.687 C151.643,257.244 149.714,253.906 147.359,250.268 C145.002,246.63 140.93,239.686 138.312,234.836 C132.252,223.618 131.75,222.806 130.588,222.361 C130.061,222.158 126.988,223.95 123.758,226.345 C120.53,228.74 114.364,232.663 110.057,235.061 C104.687,238.055 102.017,239.972 101.564,241.166 C100.122,244.963 105.65,265.218 111.083,276.049 C115.084,284.021 120.182,291.414 121.679,291.414 C121.966,291.414 126.451,286.832 131.651,281.23 z M219.105,287.434 C227.694,276.186 236.794,250.139 234.861,242.336 C234.236,239.811 233.663,239.334 226.876,235.678 C222.854,233.512 217.074,229.969 214.031,227.809 C206.822,222.685 206.23,222.405 204.921,223.491 C204.334,223.978 201.957,228.147 199.642,232.754 C197.327,237.361 193.153,244.778 190.369,249.236 C186.032,256.177 185.418,257.556 186.086,258.833 C188.232,262.944 213.742,290.7 215.376,290.7 C216.056,290.7 217.735,289.23 219.105,287.434 z M215.493,264.574 C214.781,262.72 215.867,257.092 217.713,253.058 C219.139,249.944 219.781,249.247 221.235,249.247 C222.322,249.247 223.172,249.751 223.424,250.536 C223.938,252.164 221.512,261.53 219.958,263.901 C218.652,265.898 216.145,266.276 215.493,264.574 z M170.881,261.071 C176.389,258.222 186.991,242.809 196.575,223.715 C198.198,220.481 199.526,217.241 199.526,216.515 C199.526,215.789 198.09,213.344 196.336,211.085 C194.579,208.825 192.483,205.905 191.675,204.598 C190.868,203.292 189.689,202.023 189.056,201.78 C188.334,201.503 185.479,202.912 181.378,205.567 C177.788,207.892 173.374,210.514 171.568,211.391 L168.286,212.986 L163.001,210.218 C160.094,208.694 155.691,205.919 153.213,204.049 C150.736,202.179 148.27,200.65 147.734,200.65 C146.758,200.65 139.482,210.476 137.921,213.903 C136.808,216.344 137.628,218.532 144.327,231.023 C152.331,245.948 160.15,256.951 165.208,260.41 C168.135,262.412 168.26,262.425 170.881,261.071 z M248.44,232.832 C255.641,229.345 259.09,215.842 256.661,200.65 C255.836,195.484 251.356,179.89 249.864,176.988 C248.792,174.901 246.453,173.797 241.691,173.129 C236.854,172.449 223.113,168.737 216.521,166.33 C210.331,164.072 208.455,163.768 207.749,164.908 C207.511,165.296 206.842,167.42 206.267,169.628 C204.732,175.528 201.225,183.574 198.051,188.485 C193.892,194.922 193.89,195.295 198.007,201.452 C206.92,214.777 226.023,229.713 238.553,233.152 C243.452,234.496 245.109,234.443 248.44,232.832 z M242.039,212.622 C241.822,211.737 240.593,205.748 239.306,199.312 C237.282,189.169 237.104,187.473 237.989,186.587 C239.909,184.668 241.918,185.75 243.285,189.44 C246.063,196.942 247.625,211.584 245.836,213.372 C244.446,214.762 242.469,214.371 242.039,212.622 z M103.76,230.415 C112.693,225.877 120.928,219.958 127.746,213.171 C134.179,206.768 141.638,196.521 141.638,194.086 C141.638,193.386 140.367,190.737 138.812,188.198 C134.412,181.008 132.506,176.91 130.942,171.263 C128.733,163.291 129.117,163.404 117.45,167.281 C111.969,169.103 103.626,171.376 98.912,172.331 C94.2,173.288 89.713,174.408 88.943,174.82 C87.306,175.697 85.914,179.132 83.403,188.501 C78.506,206.764 78.196,221.454 82.57,227.944 C86.976,234.485 94.11,235.316 103.76,230.415 z M176.471,200.485 C185.66,194.134 193.092,184.936 197.145,174.897 C199.443,169.212 201.068,161.421 200.26,159.965 C199.918,159.349 196.65,156.431 193,153.483 C184.608,146.706 179.144,140.198 173.559,130.332 C171.136,126.049 168.831,122.547 168.437,122.547 C168.045,122.547 165.793,125.92 163.434,130.043 C156.393,142.358 152.069,147.362 141.994,154.865 C139.243,156.916 136.761,159.002 136.478,159.506 C135.689,160.914 137.224,168.997 139.269,174.189 C143.488,184.91 153.292,196.437 163.16,202.281 C168.656,205.535 169.288,205.45 176.471,200.485 z M96.981,165.954 C127.957,160.624 152.884,141.95 161.344,117.737 C163.311,112.106 165.028,101.554 164.288,99.628 C163.695,98.081 155.587,98.039 144.254,99.525 C125.397,101.997 108.217,108.275 97.378,116.653 C85.096,126.147 76.919,138.051 73.414,151.545 C70.409,163.118 70.293,166.561 72.883,167.331 C74.882,167.924 90.822,167.015 96.981,165.954 z M265.228,165.399 C266.652,161.656 263.997,148.007 260.482,141.005 C250.59,121.299 228.161,106.385 199.771,100.636 C191.129,98.888 175.28,97.291 173.463,97.987 C172.361,98.411 172.24,99.033 172.624,102.299 C172.87,104.4 173.891,108.975 174.892,112.47 C184.465,145.892 215.348,166.603 256.182,166.983 C264.365,167.058 264.613,167.015 265.228,165.399 z M249.826,157.453 C249.015,156.884 246.63,152.946 244.526,148.697 C241.244,142.073 239.829,140.106 234.584,134.861 C229.357,129.634 227.364,128.197 220.834,124.963 C211.771,120.472 210.381,119.233 211.546,116.674 C212.205,115.231 212.873,114.891 215.055,114.891 C221.967,114.892 237.579,125.379 244.971,134.982 C251.305,143.215 255.846,156.063 253.047,157.835 C251.722,158.674 251.539,158.652 249.826,157.453 z M199.431,117.416 C199.248,117.234 195.898,116.585 191.986,115.978 C181.907,114.411 181.686,114.338 180.905,112.283 C179.781,109.327 181.094,108.458 186.673,108.458 C192.286,108.458 202.017,110.274 204.35,111.758 C206.297,112.995 206.421,114.966 204.65,116.565 C203.443,117.659 200.203,118.186 199.431,117.416 z M125.276,83.791 C106.113,78.398 95.616,57.032 103.811,40.101 C106.753,34.024 112.544,28.838 118.938,26.555 C123.541,24.912 131.846,25.127 136.993,27.022 C142.545,29.069 147.323,33.839 149.413,39.428 C152.488,47.649 150.75,53.336 145.423,52.471 C142.03,51.92 141.119,50.991 140.536,47.49 C138.891,37.586 130.008,33.186 120.874,37.751 C110.252,43.06 108.758,57.02 117.749,66.971 C128.613,78.997 149.246,75.258 158.953,59.502 C161.979,54.593 162.356,52.134 162.991,33.228 C163.703,11.953 164.019,10.752 168.678,11.607 C170.118,11.871 171.61,12.392 171.994,12.767 C172.99,13.733 173.686,22.73 173.76,35.561 C173.825,47.035 174.864,54.275 177.054,58.506 C178.762,61.811 184.865,68.087 188.357,70.13 C192.284,72.425 198.307,74.154 202.385,74.154 C223.131,74.154 233.17,47.9 216.221,37.966 C207.564,32.892 199.065,36.405 196.57,46.086 C195.051,51.978 190.076,54.663 186.993,51.256 C183.594,47.498 187.172,36.234 193.551,30.62 C208.752,17.24 233.755,29.081 235.775,50.617 C236.824,61.78 229.409,75.173 219.095,80.742 C209.177,86.097 196.248,86.142 185.754,80.857 C181.27,78.599 173.722,72.624 171.233,69.362 C169.068,66.524 167.24,66.357 165.893,68.875 C164.606,71.278 158.945,76.368 154.955,78.705 C146.463,83.681 133.053,85.979 125.276,83.791 z M125.276,83.791" fill="#020402"/>
    <path d="M4.827,382.32 C-36.348,368.203 1.985,352.362 90.446,346.939 C178.907,341.515 283.998,348.563 325.173,362.68 C366.348,376.797 328.015,392.638 239.554,398.061 C151.093,403.485 46.002,396.437 4.827,382.32 z" fill="url(#Gradient_1)"/>
  </g>
</svg>
